<?xml version="1.0" encoding="UTF-8"?>
<svg version="1.1" xmlns="http://www.w3.org/2000/svg" width="728" height="343">
<path d="M0 0 C240.24 0 480.48 0 728 0 C728 113.19 728 226.38 728 343 C487.76 343 247.52 343 0 343 C0 229.81 0 116.62 0 0 Z " fill="#FEFEFE" transform="translate(0,0)"/>
<path d="M0 0 C37.29 0 74.58 0 113 0 C113 38.94 113 77.88 113 118 C75.71 118 38.42 118 0 118 C0 79.06 0 40.12 0 0 Z " fill="#080808" transform="translate(204,112)"/>
<path d="M0 0 C37.29 0 74.58 0 113 0 C113 7.59 113 15.18 113 23 C83.3 23 53.6 23 23 23 C23 30.92 23 38.84 23 47 C37.85 47 52.7 47 68 47 C68 54.26 68 61.52 68 69 C53.15 69 38.3 69 23 69 C23 77.58 23 86.16 23 95 C52.7 95 82.4 95 113 95 C113 102.59 113 110.18 113 118 C75.71 118 38.42 118 0 118 C0 79.06 0 40.12 0 0 Z " fill="#070707" transform="translate(339,112)"/>
<path d="M0 0 C36.96 0 73.92 0 112 0 C112 38.94 112 77.88 112 118 C75.04 118 38.08 118 0 118 C0 110.41 0 102.82 0 95 C29.7 95 59.4 95 90 95 C90 86.42 90 77.84 90 69 C75.15 69 60.3 69 45 69 C45 61.74 45 54.48 45 47 C59.85 47 74.7 47 90 47 C90 39.08 90 31.16 90 23 C60.3 23 30.6 23 0 23 C0 15.41 0 7.82 0 0 Z " fill="#050505" transform="translate(556,112)"/>
<path d="M0 0 C7.59 0 15.18 0 23 0 C23 38.94 23 77.88 23 118 C-14.29 118 -51.58 118 -90 118 C-90 102.49 -90 86.98 -90 71 C-82.41 71 -74.82 71 -67 71 C-67 78.92 -67 86.84 -67 95 C-44.89 95 -22.78 95 0 95 C0 63.65 0 32.3 0 0 Z " fill="#080808" transform="translate(159,112)"/>
<path d="M0 0 C22.11 0 44.22 0 67 0 C67 23.76 67 47.52 67 72 C44.89 72 22.78 72 0 72 C0 48.24 0 24.48 0 0 Z " fill="#FEFEFE" transform="translate(227,135)"/>
<path d="M0 0 C14.85 0 29.7 0 45 0 C45 38.94 45 77.88 45 118 C37.74 118 30.48 118 23 118 C23 86.65 23 55.3 23 23 C15.41 23 7.82 23 0 23 C0 15.41 0 7.82 0 0 Z " fill="#040404" transform="translate(488,112)"/>
<path d="M0 0 C1.26972656 0.00257813 2.53945313 0.00515625 3.84765625 0.0078125 C5.11480469 0.00523437 6.38195312 0.00265625 7.6875 0 C10.91015625 0.1328125 10.91015625 0.1328125 12.91015625 1.1328125 C12.93702178 3.11190648 12.95649 5.09110221 12.97265625 7.0703125 C12.98425781 8.17246094 12.99585938 9.27460938 13.0078125 10.41015625 C12.91015625 13.1328125 12.91015625 13.1328125 11.91015625 14.1328125 C9.39879521 14.23256282 6.9211221 14.27163433 4.41015625 14.2578125 C3.70761719 14.26167969 3.00507813 14.26554687 2.28125 14.26953125 C-2.96322997 14.25942628 -2.96322997 14.25942628 -4.08984375 13.1328125 C-4.18858191 11.13481678 -4.21956174 9.13324092 -4.21484375 7.1328125 C-4.21742188 6.0396875 -4.22 4.9465625 -4.22265625 3.8203125 C-4.03276855 -0.02212087 -3.90062315 0.16766269 0 0 Z " fill="#5C5352" transform="translate(382.08984375,253.8671875)"/>
<path d="M0 0 C5.28 0 10.56 0 16 0 C16 4.29 16 8.58 16 13 C10.72 13 5.44 13 0 13 C0 8.71 0 4.42 0 0 Z " fill="#332E2F" transform="translate(209,255)"/>
<path d="M0 0 C10.05859375 -0.09765625 10.05859375 -0.09765625 13 0 C14 1 14 1 14.0625 4.5625 C14.041875 5.696875 14.02125 6.83125 14 8 C13.01 8.33 12.02 8.66 11 9 C11 9.66 11 10.32 11 11 C12.32 11.66 13.64 12.32 15 13 C13.25 13.75 13.25 13.75 11 14 C9.62437146 12.71034824 8.29233607 11.37310707 7 10 C4.8618034 9.2127322 4.8618034 9.2127322 3 9 C3 10.65 3 12.3 3 14 C2.01 14 1.02 14 0 14 C0 9.38 0 4.76 0 0 Z " fill="#473E3C" transform="translate(422,254)"/>
<path d="M0 0 C10.05859375 -0.09765625 10.05859375 -0.09765625 13 0 C14 1 14 1 14.0625 4.5625 C14.041875 5.696875 14.02125 6.83125 14 8 C13.01 8.33 12.02 8.66 11 9 C11.99 10.65 12.98 12.3 14 14 C10.63486826 13.41980487 9.36548527 12.36548527 7 10 C4.89667109 9.28552357 4.89667109 9.28552357 3 9 C3 10.65 3 12.3 3 14 C2.01 14 1.02 14 0 14 C0 9.38 0 4.76 0 0 Z " fill="#585658" transform="translate(274,254)"/>
<path d="M0 0 C10.05859375 -0.09765625 10.05859375 -0.09765625 13 0 C14 1 14 1 14.125 4.5 C14 8 14 8 13 9 C11.14712498 9.07226502 9.29166122 9.0838122 7.4375 9.0625 C6.42558594 9.05347656 5.41367188 9.04445313 4.37109375 9.03515625 C3.58863281 9.02355469 2.80617187 9.01195312 2 9 C2 10.65 2 12.3 2 14 C1.34 14 0.68 14 0 14 C0 9.38 0 4.76 0 0 Z " fill="#1C1A1E" transform="translate(190,254)"/>
<path d="M0 0 C5.28 0 10.56 0 16 0 C16.33 1.32 16.66 2.64 17 4 C16.34 4 15.68 4 15 4 C15 3.34 15 2.68 15 2 C11.04 2 7.08 2 3 2 C3 3.65 3 5.3 3 7 C7.62 7 12.24 7 17 7 C17.09765625 13.15234375 17.09765625 13.15234375 17 15 C16 16 16 16 12.62109375 16.09765625 C11.22652923 16.09098369 9.83198257 16.07902532 8.4375 16.0625 C7.72658203 16.05798828 7.01566406 16.05347656 6.28320312 16.04882812 C4.52209987 16.03700864 2.76103964 16.01907263 1 16 C0.67 14.68 0.34 13.36 0 12 C0.66 12 1.32 12 2 12 C2 12.66 2 13.32 2 14 C6.29 14 10.58 14 15 14 C15 12.35 15 10.7 15 9 C10.05 9 5.1 9 0 9 C0 6.03 0 3.06 0 0 Z " fill="#3A3638" transform="translate(455,252)"/>
<path d="M0 0 C1.65322266 0.01740234 1.65322266 0.01740234 3.33984375 0.03515625 C4.99693359 0.04869141 4.99693359 0.04869141 6.6875 0.0625 C7.54214844 0.07410156 8.39679687 0.08570313 9.27734375 0.09765625 C9.60734375 1.41765625 9.93734375 2.73765625 10.27734375 4.09765625 C6.31734375 3.76765625 2.35734375 3.43765625 -1.72265625 3.09765625 C-1.72265625 4.08765625 -1.72265625 5.07765625 -1.72265625 6.09765625 C2.56734375 6.09765625 6.85734375 6.09765625 11.27734375 6.09765625 C11.31976098 8.430604 11.31827312 10.76468192 11.27734375 13.09765625 C10.27734375 14.09765625 10.27734375 14.09765625 7.1171875 14.1953125 C5.18552734 14.17791016 5.18552734 14.17791016 3.21484375 14.16015625 C1.92449219 14.15113281 0.63414062 14.14210938 -0.6953125 14.1328125 C-1.69433594 14.12121094 -2.69335938 14.10960937 -3.72265625 14.09765625 C-4.05265625 12.77765625 -4.38265625 11.45765625 -4.72265625 10.09765625 C-3.73265625 10.09765625 -2.74265625 10.09765625 -1.72265625 10.09765625 C-1.72265625 10.75765625 -1.72265625 11.41765625 -1.72265625 12.09765625 C1.57734375 12.09765625 4.87734375 12.09765625 8.27734375 12.09765625 C7.94734375 11.10765625 7.61734375 10.11765625 7.27734375 9.09765625 C3.64734375 8.76765625 0.01734375 8.43765625 -3.72265625 8.09765625 C-3.76507348 5.7647085 -3.76358562 3.43063058 -3.72265625 1.09765625 C-2.72265625 0.09765625 -2.72265625 0.09765625 0 0 Z " fill="#464040" transform="translate(563.72265625,253.90234375)"/>
<path d="M0 0 C4.59037956 1.14759489 5.33669182 2.29039218 8 6 C11.18968892 5.24415719 11.18968892 5.24415719 13 2.4375 C13.66 1.633125 14.32 0.82875 15 0 C15.99 0 16.98 0 18 0 C18 4.29 18 8.58 18 13 C17.01 13 16.02 13 15 13 C14.67 10.69 14.34 8.38 14 6 C13.071875 7.2375 13.071875 7.2375 12.125 8.5 C11.42375 9.325 10.7225 10.15 10 11 C9.34 11 8.68 11 8 11 C6.61767557 9.37373596 5.28062485 7.7074998 4 6 C3.67 8.31 3.34 10.62 3 13 C2.01 13 1.02 13 0 13 C0 8.71 0 4.42 0 0 Z " fill="#515057" transform="translate(165,255)"/>
<path d="M0 0 C5.28 0 10.56 0 16 0 C16 0.66 16 1.32 16 2 C11.71 2 7.42 2 3 2 C3 3.32 3 4.64 3 6 C5.64 6 8.28 6 11 6 C11 6.99 11 7.98 11 9 C8.36 9 5.72 9 3 9 C3 10.65 3 12.3 3 14 C7.29 14 11.58 14 16 14 C16 14.66 16 15.32 16 16 C10.72 16 5.44 16 0 16 C0 10.72 0 5.44 0 0 Z " fill="#403E44" transform="translate(144,252)"/>
<path d="M0 0 C0.99 0.33 1.98 0.66 3 1 C4.1875 4.0625 4.1875 4.0625 5 7 C6.89213369 4.61426621 8.02391783 2.92824652 9 0 C9.99 0 10.98 0 12 0 C13.25664978 2.90600261 14 4.79604584 14 8 C14.66 8 15.32 8 16 8 C16.144375 7.236875 16.28875 6.47375 16.4375 5.6875 C17 3 17 3 18 0 C18.99 0.33 19.98 0.66 21 1 C19.68 4.96 18.36 8.92 17 13 C16.01 13 15.02 13 14 13 C12.68 10.36 11.36 7.72 10 5 C9.01 7.64 8.02 10.28 7 13 C6.01 13 5.02 13 4 13 C3.32404685 11.58774074 2.65959941 10.16997095 2 8.75 C1.62875 7.96109375 1.2575 7.1721875 0.875 6.359375 C0 4 0 4 0 0 Z " fill="#2C2528" transform="translate(230,255)"/>
<path d="M0 0 C4.62 0 9.24 0 14 0 C14 0.99 14 1.98 14 3 C10.37 3 6.74 3 3 3 C3 3.99 3 4.98 3 6 C5.31 6 7.62 6 10 6 C10 6.66 10 7.32 10 8 C7.69 8 5.38 8 3 8 C3 9.32 3 10.64 3 12 C6.63 12 10.26 12 14 12 C14 12.66 14 13.32 14 14 C9.38 14 4.76 14 0 14 C0 9.38 0 4.76 0 0 Z " fill="#29272C" transform="translate(541,254)"/>
<path d="M0 0 C1.48693359 0.00386719 1.48693359 0.00386719 3.00390625 0.0078125 C3.99261719 0.00523437 4.98132813 0.00265625 6 0 C8.56640625 0.1328125 8.56640625 0.1328125 10.56640625 1.1328125 C10.56640625 2.1228125 10.56640625 3.1128125 10.56640625 4.1328125 C6.60640625 3.8028125 2.64640625 3.4728125 -1.43359375 3.1328125 C-1.43359375 4.1228125 -1.43359375 5.1128125 -1.43359375 6.1328125 C-0.65113281 6.12121094 0.13132812 6.10960937 0.9375 6.09765625 C1.94941406 6.08863281 2.96132813 6.07960938 4.00390625 6.0703125 C5.01324219 6.05871094 6.02257812 6.04710937 7.0625 6.03515625 C9.56640625 6.1328125 9.56640625 6.1328125 10.56640625 7.1328125 C10.56640625 9.4428125 10.56640625 11.7528125 10.56640625 14.1328125 C5.94640625 14.1328125 1.32640625 14.1328125 -3.43359375 14.1328125 C-3.10359375 13.1428125 -2.77359375 12.1528125 -2.43359375 11.1328125 C1.19640625 11.4628125 4.82640625 11.7928125 8.56640625 12.1328125 C8.56640625 10.8128125 8.56640625 9.4928125 8.56640625 8.1328125 C4.60640625 8.1328125 0.64640625 8.1328125 -3.43359375 8.1328125 C-3.47601098 5.79986475 -3.47452312 3.46578683 -3.43359375 1.1328125 C-2.43359375 0.1328125 -2.43359375 0.1328125 0 0 Z " fill="#4F4A4A" transform="translate(584.43359375,253.8671875)"/>
<path d="M0 0 C1.08152344 -0.01417969 2.16304688 -0.02835938 3.27734375 -0.04296875 C6.0625 0.1875 6.0625 0.1875 8.0625 2.1875 C8.0625 3.1775 8.0625 4.1675 8.0625 5.1875 C7.0725 5.1875 6.0825 5.1875 5.0625 5.1875 C5.0625 4.5275 5.0625 3.8675 5.0625 3.1875 C2.0925 3.1875 -0.8775 3.1875 -3.9375 3.1875 C-3.9375 6.1575 -3.9375 9.1275 -3.9375 12.1875 C-0.9675 12.1875 2.0025 12.1875 5.0625 12.1875 C5.0625 11.1975 5.0625 10.2075 5.0625 9.1875 C6.0525 9.1875 7.0425 9.1875 8.0625 9.1875 C7.7325 10.8375 7.4025 12.4875 7.0625 14.1875 C4.91673363 14.21435938 2.77087355 14.23383088 0.625 14.25 C-0.56996094 14.26160156 -1.76492188 14.27320313 -2.99609375 14.28515625 C-5.9375 14.1875 -5.9375 14.1875 -6.9375 13.1875 C-7.03623816 11.18950428 -7.06721799 9.18792842 -7.0625 7.1875 C-7.06507813 6.094375 -7.06765625 5.00125 -7.0703125 3.875 C-6.82814089 -1.02541367 -4.34127466 0.02581019 0 0 Z " fill="#2F2627" transform="translate(507.9375,253.8125)"/>
<path d="M0 0 C1.79244141 0.01740234 1.79244141 0.01740234 3.62109375 0.03515625 C5.41740234 0.04869141 5.41740234 0.04869141 7.25 0.0625 C8.17683594 0.07410156 9.10367188 0.08570313 10.05859375 0.09765625 C10.05859375 1.74765625 10.05859375 3.39765625 10.05859375 5.09765625 C9.39859375 5.09765625 8.73859375 5.09765625 8.05859375 5.09765625 C8.05859375 4.43765625 8.05859375 3.77765625 8.05859375 3.09765625 C5.08859375 3.09765625 2.11859375 3.09765625 -0.94140625 3.09765625 C-0.94140625 6.06765625 -0.94140625 9.03765625 -0.94140625 12.09765625 C2.02859375 12.09765625 4.99859375 12.09765625 8.05859375 12.09765625 C8.05859375 11.10765625 8.05859375 10.11765625 8.05859375 9.09765625 C9.04859375 9.09765625 10.03859375 9.09765625 11.05859375 9.09765625 C10.72859375 10.74765625 10.39859375 12.39765625 10.05859375 14.09765625 C5.43859375 14.09765625 0.81859375 14.09765625 -3.94140625 14.09765625 C-4.0390625 4.0390625 -4.0390625 4.0390625 -3.94140625 1.09765625 C-2.94140625 0.09765625 -2.94140625 0.09765625 0 0 Z " fill="#464449" transform="translate(524.94140625,253.90234375)"/>
<path d="M0 0 C5.28 0 10.56 0 16 0 C16.33 0.99 16.66 1.98 17 3 C10.07 2.505 10.07 2.505 3 2 C3 4.97 3 7.94 3 11 C6.63 11 10.26 11 14 11 C13.33131686 7.88667752 13.33131686 7.88667752 10.9375 6.8125 C10.298125 6.544375 9.65875 6.27625 9 6 C11.31 6 13.62 6 16 6 C16 8.31 16 10.62 16 13 C13.52076199 13.02685095 11.0418116 13.04676547 8.5625 13.0625 C7.85544922 13.07087891 7.14839844 13.07925781 6.41992188 13.08789062 C4.61306441 13.09653588 2.80612397 13.05220011 1 13 C0 12 0 12 -0.09765625 9.27734375 C-0.06510417 6.18489583 -0.03255208 3.09244792 0 0 Z " fill="#342725" transform="translate(324,255)"/>
<path d="M0 0 C1.77007714 -0.08114106 3.54122098 -0.13925505 5.3125 -0.1875 C6.29863281 -0.22230469 7.28476562 -0.25710938 8.30078125 -0.29296875 C11 0 11 0 12.84375 1.28125 C14.70470674 4.04753705 14.18268024 6.77264913 14 10 C13.67 10 13.34 10 13 10 C13 8.02 13 6.04 13 4 C12.01 4.33 11.02 4.66 10 5 C10.33 6.32 10.66 7.64 11 9 C7.37 9 3.74 9 0 9 C0 6.03 0 3.06 0 0 Z " fill="#E4E2E3" transform="translate(327,257)"/>
<path d="M0 0 C0.99 0 1.98 0 3 0 C3 4.62 3 9.24 3 14 C-1.05317197 12.98670701 -2.22122014 12.21584347 -5.1875 9.5 C-5.88230469 8.8709375 -6.57710938 8.241875 -7.29296875 7.59375 C-8.20642319 6.74091381 -9.11633474 5.88366526 -10 5 C-10.33 7.97 -10.66 10.94 -11 14 C-11.66 14 -12.32 14 -13 14 C-13 9.71 -13 5.42 -13 1 C-9.14065742 1.96483565 -8.14147559 2.46507963 -5.375 5 C-2.87625688 7.27217224 -2.87625688 7.27217224 0 9 C0 6.03 0 3.06 0 0 Z " fill="#737070" transform="translate(316,254)"/>
<path d="M0 0 C0.99 0 1.98 0 3 0 C3 3.96 3 7.92 3 12 C5.97 12 8.94 12 12 12 C12 8.04 12 4.08 12 0 C12.99 0 13.98 0 15 0 C15 4.62 15 9.24 15 14 C10.05 14 5.1 14 0 14 C0 9.38 0 4.76 0 0 Z " fill="#2D2C35" transform="translate(401,254)"/>
<path d="M0 0 C3.63 0 7.26 0 11 0 C11 2.97 11 5.94 11 9 C7.37 9 3.74 9 0 9 C0 6.03 0 3.06 0 0 Z " fill="#FAFAFA" transform="translate(381,257)"/>
<path d="M0 0 C3.63 0 7.26 0 11 0 C11 2.97 11 5.94 11 9 C7.37 9 3.74 9 0 9 C0 6.03 0 3.06 0 0 Z " fill="#F5F3F2" transform="translate(212,257)"/>
<path d="M0 0 C4.62 0 9.24 0 14 0 C14 0.66 14 1.32 14 2 C10.37 2 6.74 2 3 2 C3 2.99 3 3.98 3 5 C5.31 5 7.62 5 10 5 C10 5.66 10 6.32 10 7 C7.69 7 5.38 7 3 7 C3 8.32 3 9.64 3 11 C6.63 11 10.26 11 14 11 C14 11.66 14 12.32 14 13 C9.38 13 4.76 13 0 13 C0 8.71 0 4.42 0 0 Z " fill="#333034" transform="translate(255,255)"/>
<path d="M0 0 C2.97 0 5.94 0 9 0 C9 0.66 9 1.32 9 2 C9.99 2.33 10.98 2.66 12 3 C11.01 3.495 11.01 3.495 10 4 C10.33 4.66 10.66 5.32 11 6 C10.34 6 9.68 6 9 6 C9 6.99 9 7.98 9 9 C6.03 9 3.06 9 0 9 C0 6.03 0 3.06 0 0 Z " fill="#F9F8F8" transform="translate(504,257)"/>
<path d="M0 0 C0.66 0 1.32 0 2 0 C2 3.63 2 7.26 2 11 C5.3 11 8.6 11 12 11 C12 7.37 12 3.74 12 0 C12.99 0 13.98 0 15 0 C15.02686553 1.97909398 15.04633375 3.95828971 15.0625 5.9375 C15.07410156 7.03964844 15.08570313 8.14179688 15.09765625 9.27734375 C15 12 15 12 14 13 C11.64686445 13.07271741 9.29166332 13.08370868 6.9375 13.0625 C5.64714844 13.05347656 4.35679687 13.04445313 3.02734375 13.03515625 C2.02832031 13.02355469 1.02929688 13.01195312 0 13 C0 8.71 0 4.42 0 0 Z " fill="#251C21" transform="translate(480,255)"/>
<path d="M0 0 C4.59074074 0.4962963 4.59074074 0.4962963 6.625 3 C7.07875 3.66 7.5325 4.32 8 5 C8.99 5.33 9.98 5.66 11 6 C11.309375 5.38125 11.61875 4.7625 11.9375 4.125 C12.625 2.75 13.3125 1.375 14 0 C15.32 0.33 16.64 0.66 18 1 C17.57847656 1.4125 17.15695312 1.825 16.72265625 2.25 C12.40797978 6.79817661 11.2196833 9.73902584 11 16 C10.01 16 9.02 16 8 16 C8 13.36 8 10.72 8 8 C7.4225 7.79375 6.845 7.5875 6.25 7.375 C3.18589456 5.50249112 1.84460032 3.03041481 0 0 Z " fill="#2F1F20" transform="translate(357,252)"/>
<path d="M0 0 C4.29 0 8.58 0 13 0 C13 1.65 13 3.3 13 5 C8.71 5 4.42 5 0 5 C0 4.34 0 3.68 0 3 C-0.66 2.67 -1.32 2.34 -2 2 C-1.34 2 -0.68 2 0 2 C0 1.34 0 0.68 0 0 Z " fill="#E3E1E1" transform="translate(457,261)"/>
<path d="M0 0 C10.05859375 -0.09765625 10.05859375 -0.09765625 13 0 C14 1 14 1 14.0625 4.5625 C14.041875 5.696875 14.02125 6.83125 14 8 C13.01 7.67 12.02 7.34 11 7 C11.33 5.35 11.66 3.7 12 2 C8.7 2 5.4 2 2 2 C2 5.96 2 9.92 2 14 C1.34 14 0.68 14 0 14 C0 9.38 0 4.76 0 0 Z " fill="#3A3535" transform="translate(274,254)"/>
<path d="M0 0 C3.96 0 7.92 0 12 0 C12 0.66 12 1.32 12 2 C12.66 2.33 13.32 2.66 14 3 C13.67 3.66 13.34 4.32 13 5 C8.71 5 4.42 5 0 5 C0 3.35 0 1.7 0 0 Z " fill="#E0E0E0" transform="translate(458,254)"/>
<path d="M0 0 C4.95 0 9.9 0 15 0 C15.09765625 6.15234375 15.09765625 6.15234375 15 8 C14 9 14 9 10.62109375 9.09765625 C9.22652923 9.09098369 7.83198257 9.07902532 6.4375 9.0625 C5.37112305 9.05573242 5.37112305 9.05573242 4.28320312 9.04882812 C2.52209987 9.03700864 0.76103964 9.01907263 -1 9 C-1.33 7.68 -1.66 6.36 -2 5 C-1.34 5 -0.68 5 0 5 C0 5.66 0 6.32 0 7 C4.29 7 8.58 7 13 7 C13 5.02 13 3.04 13 1 C8.71 1 4.42 1 0 1 C0 0.67 0 0.34 0 0 Z " fill="#0E0B0E" transform="translate(457,259)"/>
<path d="M0 0 C4.95 0 9.9 0 15 0 C15.09765625 9.27734375 15.09765625 9.27734375 15 12 C14 13 14 13 10.83984375 13.09765625 C8.90818359 13.08025391 8.90818359 13.08025391 6.9375 13.0625 C5.64714844 13.05347656 4.35679687 13.04445313 3.02734375 13.03515625 C2.02832031 13.02355469 1.02929688 13.01195312 0 13 C0 12.67 0 12.34 0 12 C3.96 12 7.92 12 12 12 C12 8.37 12 4.74 12 1 C8.04 1 4.08 1 0 1 C0 0.67 0 0.34 0 0 Z " fill="#201E23" transform="translate(380,255)"/>
<path d="M0 0 C5.28 0 10.56 0 16 0 C16 0.66 16 1.32 16 2 C11.38 2 6.76 2 2 2 C1.67 6.29 1.34 10.58 1 15 C5.62 15 10.24 15 15 15 C15 15.33 15 15.66 15 16 C10.05 16 5.1 16 0 16 C0 10.72 0 5.44 0 0 Z " fill="#191215" transform="translate(144,252)"/>
<path d="M0 0 C0.33 0 0.66 0 1 0 C1 1.98 1 3.96 1 6 C4.96 6 8.92 6 13 6 C13 7.32 13 8.64 13 10 C12.22914063 9.98839844 11.45828125 9.97679687 10.6640625 9.96484375 C9.66117188 9.95582031 8.65828125 9.94679688 7.625 9.9375 C6.12839844 9.92009766 6.12839844 9.92009766 4.6015625 9.90234375 C2.01567547 9.81993398 2.01567547 9.81993398 0 11 C-1.05404945 7.01803543 -0.84098656 4.01804691 0 0 Z " fill="#BCB7B2" transform="translate(580,256)"/>
<path d="M0 0 C4.62 0 9.24 0 14 0 C14 0.99 14 1.98 14 3 C9.71 3 5.42 3 1 3 C1 6.63 1 10.26 1 14 C0.67 14 0.34 14 0 14 C0 9.38 0 4.76 0 0 Z " fill="#5E5650" transform="translate(541,254)"/>
<path d="M0 0 C0.99 0.33 1.98 0.66 3 1 C1.68 4.96 0.36 8.92 -1 13 C-1.99 13 -2.98 13 -4 13 C-4.99 10.03 -5.98 7.06 -7 4 C-6.34 3.34 -5.68 2.68 -5 2 C-4.67 3.98 -4.34 5.96 -4 8 C-3.34 8 -2.68 8 -2 8 C-1.855625 7.236875 -1.71125 6.47375 -1.5625 5.6875 C-1 3 -1 3 0 0 Z " fill="#373232" transform="translate(248,255)"/>
<path d="M0 0 C0.99 0 1.98 0 3 0 C3 4.62 3 9.24 3 14 C-0.96 13.67 -4.92 13.34 -9 13 C-9 12.67 -9 12.34 -9 12 C-6.03 12 -3.06 12 0 12 C0 8.04 0 4.08 0 0 Z " fill="#443E46" transform="translate(413,254)"/>
<path d="M0 0 C3.96 0 7.92 0 12 0 C12 2.31 12 4.62 12 7 C7.38 7 2.76 7 -2 7 C-1.67 6.01 -1.34 5.02 -1 4 C2.63 4.33 6.26 4.66 10 5 C10 3.68 10 2.36 10 1 C6.7 1 3.4 1 0 1 C0 0.67 0 0.34 0 0 Z " fill="#242224" transform="translate(583,261)"/>
<path d="M0 0 C1.65 0 3.3 0 5 0 C5 2.31 5 4.62 5 7 C0.38 7 -4.24 7 -9 7 C-9.33 5.68 -9.66 4.36 -10 3 C-9.01 3 -8.02 3 -7 3 C-7 3.66 -7 4.32 -7 5 C-3.7 5 -0.4 5 3 5 C2.2236068 1.9254644 2.2236068 1.9254644 0 0 Z " fill="#1C1A1C" transform="translate(569,261)"/>
<path d="M0 0 C0.33 0 0.66 0 1 0 C1 2.31 1 4.62 1 7 C0.01 7.33 -0.98 7.66 -2 8 C-2 8.66 -2 9.32 -2 10 C-0.68 10.66 0.64 11.32 2 12 C0.25 12.75 0.25 12.75 -2 13 C-3.37562854 11.71034824 -4.70766393 10.37310707 -6 9 C-8.1381966 8.2127322 -8.1381966 8.2127322 -10 8 C-10 7.34 -10 6.68 -10 6 C-7.03 6 -4.06 6 -1 6 C-0.67 4.02 -0.34 2.04 0 0 Z " fill="#363238" transform="translate(435,255)"/>
<path d="M0 0 C4.18099116 1.04524779 4.72845936 1.4105742 7.25 4.5625 C8.03117187 5.52349609 8.03117187 5.52349609 8.828125 6.50390625 C9.21484375 6.99761719 9.6015625 7.49132812 10 8 C6.38144425 7.37611108 5.8290723 6.8290723 3 4 C2.67 6.97 2.34 9.94 2 13 C1.34 13 0.68 13 0 13 C0 8.71 0 4.42 0 0 Z " fill="#1E0C0A" transform="translate(303,255)"/>
<path d="M0 0 C0.99 0 1.98 0 3 0 C3 4.29 3 8.58 3 13 C2.01 13 1.02 13 0 13 C0 10.36 0 7.72 0 5 C-0.66 5 -1.32 5 -2 5 C-1.125 1.125 -1.125 1.125 0 0 Z " fill="#3D3234" transform="translate(180,255)"/>
<path d="M0 0 C2.31 0 4.62 0 7 0 C7 2.31 7 4.62 7 7 C2.71 7 -1.58 7 -6 7 C-6 6.34 -6 5.68 -6 5 C-2.37 5 1.26 5 5 5 C4.33131686 1.88667752 4.33131686 1.88667752 1.9375 0.8125 C1.298125 0.544375 0.65875 0.27625 0 0 Z " fill="#211E20" transform="translate(333,261)"/>
<path d="M0 0 C3.3 0 6.6 0 10 0 C10.33 1.32 10.66 2.64 11 4 C7.7 4 4.4 4 1 4 C0.67 2.68 0.34 1.36 0 0 Z " fill="#E8E7E7" transform="translate(561,262)"/>
<path d="M0 0 C0.66 0 1.32 0 2 0 C2 3.63 2 7.26 2 11 C5.3 11 8.6 11 12 11 C12 11.33 12 11.66 12 12 C6.06 12.495 6.06 12.495 0 13 C0 8.71 0 4.42 0 0 Z " fill="#302628" transform="translate(480,255)"/>
<path d="M0 0 C2.97 0 5.94 0 9 0 C9 1.32 9 2.64 9 4 C6.03 4 3.06 4 0 4 C0 2.68 0 1.36 0 0 Z " fill="#E9E8E7" transform="translate(425,257)"/>
<path d="M0 0 C2.97 0 5.94 0 9 0 C9 1.32 9 2.64 9 4 C6.03 4 3.06 4 0 4 C0 2.68 0 1.36 0 0 Z " fill="#EBEBEC" transform="translate(192,257)"/>
<path d="M0 0 C1.95803507 -0.05389087 3.91648909 -0.09274217 5.875 -0.125 C7.51082031 -0.15980469 7.51082031 -0.15980469 9.1796875 -0.1953125 C12 0 12 0 14 2 C14 2.99 14 3.98 14 5 C13.01 5 12.02 5 11 5 C11 4.34 11 3.68 11 3 C10.06027344 3.05220703 10.06027344 3.05220703 9.1015625 3.10546875 C8.28429687 3.13253906 7.46703125 3.15960938 6.625 3.1875 C5.81289063 3.22230469 5.00078125 3.25710938 4.1640625 3.29296875 C3.44992187 3.19628906 2.73578125 3.09960938 2 3 C1.34 2.01 0.68 1.02 0 0 Z " fill="#5F5F61" transform="translate(502,254)"/>
<path d="M0 0 C1.32 0.33 2.64 0.66 4 1 C3.57847656 1.4125 3.15695312 1.825 2.72265625 2.25 C-1.59202022 6.79817661 -2.7803167 9.73902584 -3 16 C-3.33 16 -3.66 16 -4 16 C-4.22786458 13.98177083 -4.45572917 11.96354167 -4.68359375 9.9453125 C-4.91292961 7.92595684 -4.91292961 7.92595684 -6 6 C-5.01 6 -4.02 6 -3 6 C-2.690625 5.38125 -2.38125 4.7625 -2.0625 4.125 C-1.375 2.75 -0.6875 1.375 0 0 Z " fill="#433F41" transform="translate(371,252)"/>
<path d="M0 0 C3.96 0 7.92 0 12 0 C12.33 1.32 12.66 2.64 13 4 C11.20741442 3.91306859 9.41584856 3.80489496 7.625 3.6875 C6.62726562 3.62949219 5.62953125 3.57148438 4.6015625 3.51171875 C3.74304688 3.34285156 2.88453125 3.17398437 2 3 C1.34 2.01 0.68 1.02 0 0 Z " fill="#656365" transform="translate(561,254)"/>
<path d="M0 0 C4.29 0 8.58 0 13 0 C13.33 0.99 13.66 1.98 14 3 C13.34 3 12.68 3 12 3 C11.67 4.32 11.34 5.64 11 7 C11 5.68 11 4.36 11 3 C10.06027344 3.05220703 10.06027344 3.05220703 9.1015625 3.10546875 C8.28429687 3.13253906 7.46703125 3.15960938 6.625 3.1875 C5.81289062 3.22230469 5.00078125 3.25710938 4.1640625 3.29296875 C3.44992188 3.19628906 2.73578125 3.09960938 2 3 C1.34 2.01 0.68 1.02 0 0 Z " fill="#6E6D6E" transform="translate(190,254)"/>
<path d="M0 0 C1.62463842 -0.05395478 3.24978541 -0.09277195 4.875 -0.125 C5.77992188 -0.14820313 6.68484375 -0.17140625 7.6171875 -0.1953125 C10 0 10 0 12 2 C9.47524538 3.26237731 7.68799534 3.09856404 4.875 3.0625 C3.96492187 3.05347656 3.05484375 3.04445313 2.1171875 3.03515625 C1.41851563 3.02355469 0.71984375 3.01195312 0 3 C0 2.01 0 1.02 0 0 Z " fill="#EEEEEE" transform="translate(583,257)"/>
<path d="M0 0 C1.62463842 -0.05395478 3.24978541 -0.09277195 4.875 -0.125 C5.77992188 -0.14820313 6.68484375 -0.17140625 7.6171875 -0.1953125 C10 0 10 0 12 2 C9.47524538 3.26237731 7.68799534 3.09856404 4.875 3.0625 C3.96492187 3.05347656 3.05484375 3.04445313 2.1171875 3.03515625 C1.41851563 3.02355469 0.71984375 3.01195312 0 3 C0 2.01 0 1.02 0 0 Z " fill="#ECECEC" transform="translate(562,257)"/>
<path d="M0 0 C2.64 0 5.28 0 8 0 C8 1.32 8 2.64 8 4 C5.36 4 2.72 4 0 4 C0 2.68 0 1.36 0 0 Z " fill="#F1F1F0" transform="translate(277,257)"/>
<path d="M0 0 C3.3 0 6.6 0 10 0 C10 0.99 10 1.98 10 3 C7.03 3 4.06 3 1 3 C0.67 2.01 0.34 1.02 0 0 Z " fill="#F8F8F8" transform="translate(582,263)"/>
<path d="M0 0 C0.99 0 1.98 0 3 0 C2.67 4.29 2.34 8.58 2 13 C1.34 13 0.68 13 0 13 C0 8.71 0 4.42 0 0 Z " fill="#3B2823" transform="translate(165,255)"/>
<path d="M0 0 C0.99 0.33 1.98 0.66 3 1 C2.01 3.97 1.02 6.94 0 10 C-1.32 9.34 -2.64 8.68 -4 8 C-3.34 8 -2.68 8 -2 8 C-1.855625 7.236875 -1.71125 6.47375 -1.5625 5.6875 C-1 3 -1 3 0 0 Z " fill="#504A4D" transform="translate(248,255)"/>
<path d="M0 0 C0.99 0 1.98 0 3 0 C2.67 1.65 2.34 3.3 2 5 C-1.63 4.67 -5.26 4.34 -9 4 C-9 3.67 -9 3.34 -9 3 C-6.03 3 -3.06 3 0 3 C0 2.01 0 1.02 0 0 Z " fill="#3E3D42" transform="translate(513,263)"/>
<path d="M0 0 C0.99 0 1.98 0 3 0 C2.67 1.65 2.34 3.3 2 5 C-1.63 5 -5.26 5 -9 5 C-9 4.67 -9 4.34 -9 4 C-6.03 4 -3.06 4 0 4 C0 2.68 0 1.36 0 0 Z " fill="#302F31" transform="translate(533,263)"/>
<path d="M0 0 C0.99 0.33 1.98 0.66 3 1 C3.625 3.8125 3.625 3.8125 4 7 C3.01 8.485 3.01 8.485 2 10 C0.68373308 6.38026598 0 3.90432869 0 0 Z " fill="#463A3D" transform="translate(230,255)"/>
<path d="M0 0 C1.14926266 0.95421808 2.29430541 1.91352045 3.4375 2.875 C4.07558594 3.40867187 4.71367187 3.94234375 5.37109375 4.4921875 C7 6 7 6 8 8 C4.64358593 7.40064035 2.57812038 6.22251757 0 4 C-0.33 3.34 -0.66 2.68 -1 2 C-0.67 1.34 -0.34 0.68 0 0 Z " fill="#2C2629" transform="translate(305,255)"/>
<path d="M0 0 C0.33 0 0.66 0 1 0 C1 4.29 1 8.58 1 13 C-0.32 12.34 -1.64 11.68 -3 11 C-3 10.34 -3 9.68 -3 9 C-2.01 9 -1.02 9 0 9 C0 6.03 0 3.06 0 0 Z " fill="#1A1518" transform="translate(317,255)"/>
<path d="M0 0 C0.99 0 1.98 0 3 0 C3 0.66 3 1.32 3 2 C6.3 2 9.6 2 13 2 C13 2.33 13 2.66 13 3 C7.06 3.495 7.06 3.495 1 4 C0.67 2.68 0.34 1.36 0 0 Z " fill="#504B4C" transform="translate(559,264)"/>
<path d="M0 0 C0.66 0 1.32 0 2 0 C2 0.66 2 1.32 2 2 C5.96 2 9.92 2 14 2 C14 2.33 14 2.66 14 3 C7.565 3.495 7.565 3.495 1 4 C0.67 2.68 0.34 1.36 0 0 Z " fill="#2F2929" transform="translate(455,264)"/>
<path d="M0 0 C0 0.66 0 1.32 0 2 C-6.93 1.505 -6.93 1.505 -14 1 C-14 0.67 -14 0.34 -14 0 C-12.04235617 -0.19456705 -10.08384679 -0.38044247 -8.125 -0.5625 C-6.48917969 -0.71912109 -6.48917969 -0.71912109 -4.8203125 -0.87890625 C-2 -1 -2 -1 0 0 Z " fill="#636366" transform="translate(341,256)"/>
<path d="M0 0 C0.99 0 1.98 0 3 0 C3 0.99 3 1.98 3 3 C4.32 3.66 5.64 4.32 7 5 C6.01 5.33 5.02 5.66 4 6 C2.62437146 4.71034824 1.29233607 3.37310707 0 2 C0 1.34 0 0.68 0 0 Z " fill="#242124" transform="translate(281,262)"/>
</svg>
