<?xml version="1.0" standalone="no"?>
<!DOCTYPE svg PUBLIC "-//W3C//DTD SVG 20010904//EN"
 "http://www.w3.org/TR/2001/REC-SVG-20010904/DTD/svg10.dtd">
<svg version="1.0" xmlns="http://www.w3.org/2000/svg"
 width="759.000000pt" height="358.000000pt" viewBox="0 0 759.000000 358.000000"
 preserveAspectRatio="xMidYMid meet">

<g transform="translate(0.000000,358.000000) scale(0.100000,-0.100000)"
fill="#000000" stroke="none">
<path d="M1660 1915 l0 -495 -350 0 -350 0 0 125 0 125 -115 0 -115 0 0 -245
0 -245 585 0 585 0 0 615 0 615 -120 0 -120 0 0 -495z"/>
<path d="M2130 1795 l0 -615 585 0 585 0 0 615 0 615 -585 0 -585 0 0 -615z
m940 0 l0 -375 -350 0 -350 0 0 375 0 375 350 0 350 0 0 -375z"/>
<path d="M3540 1795 l0 -615 585 0 585 0 0 120 0 120 -470 0 -470 0 0 135 0
135 235 0 235 0 0 115 0 115 -235 0 -235 0 0 125 0 125 470 0 470 0 0 120 0
120 -585 0 -585 0 0 -615z"/>
<path d="M5090 2290 l0 -120 120 0 120 0 0 -495 0 -495 115 0 115 0 0 615 0
615 -235 0 -235 0 0 -120z"/>
<path d="M5794 2397 c-2 -7 -3 -60 -2 -118 l3 -104 468 -3 467 -2 0 -125 0
-125 -235 0 -235 0 0 -115 0 -115 235 0 235 0 0 -135 0 -135 -467 -2 -468 -3
0 -115 0 -115 588 -3 587 -2 -2 612 -3 613 -583 3 c-476 2 -583 0 -588 -11z"/>
<path d="M1500 865 l0 -85 85 0 c50 0 85 4 85 10 0 6 -30 10 -70 10 l-70 0 0
30 c0 28 2 30 40 30 22 0 40 5 40 10 0 6 -18 10 -40 10 -36 0 -40 3 -40 25 0
24 2 25 70 25 40 0 70 4 70 10 0 6 -35 10 -85 10 l-85 0 0 -85z"/>
<path d="M3759 905 c34 -37 41 -52 41 -85 0 -29 4 -40 15 -40 11 0 15 11 15
38 1 29 10 47 40 82 49 55 31 69 -18 15 l-35 -38 -30 36 c-16 21 -38 37 -49
37 -18 0 -14 -7 21 -45z"/>
<path d="M4754 936 c-3 -8 -4 -27 -2 -43 3 -27 5 -28 73 -33 67 -5 70 -6 70
-30 0 -24 -3 -25 -62 -28 -52 -2 -63 0 -63 13 0 8 -7 15 -15 15 -8 0 -15 -6
-15 -14 0 -28 28 -37 102 -34 l73 3 0 45 0 45 -70 5 c-63 5 -70 7 -73 28 -3
21 0 22 61 22 43 0 67 -4 70 -12 2 -7 8 -10 12 -6 4 4 5 14 2 23 -9 21 -155
22 -163 1z"/>
<path d="M1720 850 c0 -56 3 -70 15 -70 11 0 15 12 15 52 l0 52 31 -42 c17
-23 32 -42 34 -42 2 0 17 19 34 42 l31 42 0 -52 c0 -40 4 -52 15 -52 12 0 15
14 15 70 0 85 -14 91 -61 25 l-32 -44 -34 44 c-50 66 -63 60 -63 -25z"/>
<path d="M1980 850 c0 -68 15 -98 22 -42 3 25 6 27 63 32 l60 5 0 35 0 35 -72
3 -73 3 0 -71z m120 30 c0 -17 -7 -20 -50 -20 -43 0 -50 3 -50 20 0 17 7 20
50 20 43 0 50 -3 50 -20z"/>
<path d="M2182 853 l3 -68 80 0 80 0 0 65 0 65 -83 3 -83 3 3 -68z m138 -3 l0
-51 -57 3 -58 3 -3 48 -3 47 60 0 61 0 0 -50z"/>
<path d="M2395 903 c4 -10 16 -42 27 -70 12 -29 26 -53 32 -53 7 0 21 24 31
52 l19 53 18 -40 c9 -22 18 -46 18 -52 0 -11 30 -20 30 -9 0 2 11 33 25 70 17
46 21 66 12 66 -7 0 -21 -24 -31 -52 l-19 -53 -20 53 c-18 47 -47 71 -47 40 0
-7 -9 -31 -19 -53 l-18 -40 -17 53 c-11 32 -23 52 -33 52 -10 0 -13 -5 -8 -17z"/>
<path d="M2660 850 l0 -70 75 0 c43 0 75 4 75 10 0 6 -27 10 -60 10 -53 0 -60
2 -60 19 0 15 8 21 33 23 17 2 32 8 32 13 0 6 -15 11 -32 13 -21 2 -33 9 -33
18 0 10 14 14 55 14 30 0 55 5 55 10 0 6 -30 10 -70 10 l-70 0 0 -70z"/>
<path d="M2860 850 c0 -40 4 -70 10 -70 6 0 10 11 10 25 0 39 27 42 64 6 17
-17 40 -31 51 -31 16 0 15 4 -10 30 -28 29 -28 30 -7 30 19 0 22 6 22 40 l0
40 -70 0 -70 0 0 -70z m115 30 c0 -11 -13 -16 -47 -18 -43 -3 -48 -1 -48 18 0
19 5 21 48 18 34 -2 47 -7 47 -18z"/>
<path d="M3060 850 c0 -56 3 -70 15 -70 12 0 15 14 15 70 0 56 -3 70 -15 70
-12 0 -15 -14 -15 -70z"/>
<path d="M3160 850 c0 -40 4 -70 10 -70 6 0 10 23 10 50 0 28 3 50 6 50 3 0
31 -22 62 -50 31 -27 60 -50 64 -50 4 0 8 32 8 70 0 80 -17 96 -22 19 l-3 -50
-57 50 c-31 28 -61 51 -67 51 -7 0 -11 -26 -11 -70z"/>
<path d="M3386 904 c-9 -23 -7 -97 3 -112 5 -9 29 -12 82 -10 l74 3 3 38 3 37
-46 0 c-28 0 -44 -4 -40 -10 3 -5 17 -10 31 -10 17 0 24 -5 24 -20 0 -18 -7
-20 -55 -20 l-55 0 0 50 0 50 53 0 c29 0 58 -5 64 -11 8 -8 13 -8 17 0 14 23
-7 31 -79 31 -57 0 -74 -3 -79 -16z"/>
<path d="M3946 905 c-8 -21 -8 -89 0 -109 5 -13 22 -16 85 -16 89 0 93 4 87
91 l-3 44 -81 3 c-68 2 -83 0 -88 -13z m144 -55 l0 -50 -60 0 -60 0 0 50 0 50
60 0 60 0 0 -50z"/>
<path d="M4182 853 l3 -68 75 0 75 0 3 68 c2 55 0 67 -13 67 -12 0 -15 -13
-15 -60 l0 -60 -50 0 -50 0 0 60 c0 47 -3 60 -15 60 -13 0 -15 -12 -13 -67z"/>
<path d="M4400 850 c0 -56 3 -70 15 -70 10 0 15 10 15 30 0 22 5 30 18 30 10
0 31 -13 47 -30 16 -16 38 -30 49 -30 19 1 19 3 -6 23 -33 27 -34 33 -7 40 16
4 20 12 17 39 l-3 33 -72 3 -73 3 0 -71z m120 30 c0 -17 -7 -20 -45 -20 -38 0
-45 3 -45 20 0 17 7 20 45 20 38 0 45 -3 45 -20z"/>
<path d="M5002 853 l3 -68 75 0 75 0 3 68 c2 55 0 67 -13 67 -12 0 -15 -13
-15 -60 l0 -60 -50 0 -50 0 0 60 c0 47 -3 60 -15 60 -13 0 -15 -12 -13 -67z"/>
<path d="M5227 914 c-10 -10 -9 -106 2 -122 5 -9 28 -12 77 -10 63 3 69 5 72
26 2 15 -2 22 -12 22 -9 0 -16 -7 -16 -15 0 -11 -12 -15 -50 -15 l-50 0 0 50
0 50 50 0 c39 0 50 -3 50 -16 0 -9 6 -14 13 -11 6 2 12 12 12 23 0 17 -9 19
-70 22 -39 1 -74 0 -78 -4z"/>
<path d="M5434 906 c-3 -7 -4 -38 -2 -67 l3 -54 70 0 c65 0 70 2 73 23 2 12
-1 22 -7 22 -6 0 -11 -7 -11 -15 0 -11 -12 -15 -50 -15 l-50 0 0 50 0 50 50 0
c38 0 50 -4 50 -15 0 -8 5 -15 10 -15 6 0 10 11 10 25 0 24 -2 25 -70 25 -51
0 -72 -4 -76 -14z"/>
<path d="M5640 850 l0 -70 75 0 c43 0 75 4 75 10 0 6 -27 10 -60 10 -53 0 -60
2 -60 20 0 16 7 20 35 20 24 0 35 5 35 15 0 10 -11 15 -35 15 -24 0 -35 5 -35
15 0 12 13 15 60 15 33 0 60 4 60 10 0 6 -32 10 -75 10 l-75 0 0 -70z"/>
<path d="M5844 906 c-3 -8 -4 -25 -2 -38 3 -21 9 -23 61 -26 49 -3 57 -6 57
-22 0 -17 -7 -20 -50 -20 -27 0 -50 5 -50 10 0 6 -7 10 -16 10 -9 0 -14 -7
-12 -17 3 -15 15 -18 78 -18 l75 0 3 33 c3 27 -1 34 -23 42 -14 6 -44 10 -66
10 -29 0 -39 4 -39 16 0 14 9 16 65 11 47 -3 65 -1 62 7 -2 6 -32 12 -70 14
-52 2 -69 0 -73 -12z"/>
<path d="M6055 900 c-3 -10 -1 -28 5 -40 9 -16 21 -20 65 -20 48 0 55 -2 55
-20 0 -17 -7 -20 -48 -20 -26 0 -53 5 -60 12 -15 15 -26 4 -19 -17 5 -11 23
-15 76 -15 67 0 71 1 77 25 3 14 4 31 1 39 -6 14 -50 26 -98 26 -19 0 -29 5
-29 15 0 11 12 15 50 15 29 0 50 -5 50 -11 0 -5 5 -7 10 -4 6 3 10 13 10 21 0
11 -16 14 -69 14 -60 0 -70 -3 -76 -20z"/>
</g>
</svg>
